# xmcd
#
# Track frame offsets:
# 150
# 17110
# 40084
# 56928
# 73959
# 94029
# 118748
# 137371
# 156148
# 176783
#
# Disc length: 2601 seconds
#
# Revision: 0
# Processed by: cddbd v1.4b42PL1 Copyright (c) Steve Scherf et al.
# Submitted via: Audion 2.5.0 (http://www.panic.com/audion/)
#
DISCID=8b0a270a
DTITLE=Chatterbox - Chatterbox
DYEAR=1900
DGENRE=
TTITLE0=Perfect Prophet
TTITLE1=Don't Come Runnin
TTITLE2=Queen
TTITLE3=Bumble Bee
TTITLE4=Snakes
TTITLE5=No Secrets
TTITLE6=Soul Afire
TTITLE7=Emotional Holiday
TTITLE8=Wake Up
TTITLE9=Nothing but Love
EXTD=
EXTT0=
EXTT1=
EXTT2=
EXTT3=
EXTT4=
EXTT5=
EXTT6=
EXTT7=
EXTT8=
EXTT9=
PLAYORDER=
